<?xml version="1.0" standalone="no"?>
<!DOCTYPE svg PUBLIC "-//W3C//DTD SVG 20010904//EN"
 "http://www.w3.org/TR/2001/REC-SVG-20010904/DTD/svg10.dtd">
<svg version="1.0" xmlns="http://www.w3.org/2000/svg"
 width="1155.000000pt" height="1280.000000pt" viewBox="0 0 1155.000000 1280.000000"
 preserveAspectRatio="xMidYMid meet">
<metadata>
Created by potrace 1.15, written by Peter Selinger 2001-2017
</metadata>
<g transform="translate(0.000000,1280.000000) scale(0.100000,-0.100000)"
fill="#000000" stroke="none">
<path d="M3913 12793 c-10 -4 -13 -93 -13 -399 l0 -394 -93 0 c-91 0 -117 -8
-117 -36 0 -17 512 -558 532 -562 10 -2 109 97 269 267 139 149 257 277 261
285 5 9 2 20 -8 30 -12 12 -37 16 -105 16 l-89 0 0 388 c0 288 -3 391 -12 400
-9 9 -91 12 -312 11 -166 0 -307 -3 -313 -6z"/>
<path d="M7109 12529 c-140 -149 -256 -280 -257 -291 -5 -31 14 -38 111 -38
l87 0 0 -388 c0 -288 3 -391 12 -400 9 -9 91 -12 309 -12 164 0 304 3 313 6
14 5 16 50 16 400 l0 394 93 0 c92 0 117 8 117 36 0 22 -514 564 -535 564 -7
0 -127 -122 -266 -271z"/>
<path d="M1176 12614 c-3 -9 -6 -54 -6 -100 l0 -84 -388 0 c-288 0 -391 -3
-400 -12 -17 -17 -17 -619 0 -636 9 -9 112 -12 400 -12 l388 0 0 -88 c0 -87 8
-112 37 -112 13 0 541 490 556 517 5 8 3 22 -5 33 -31 44 -540 510 -557 510
-10 0 -22 -7 -25 -16z"/>
<path d="M10113 12379 c-147 -139 -272 -258 -276 -265 -4 -8 -4 -20 0 -28 19
-33 545 -516 562 -516 26 0 31 19 31 116 l0 84 388 0 c288 0 391 3 400 12 17
17 17 619 0 636 -9 9 -112 12 -400 12 l-388 0 0 84 c0 97 -5 116 -31 116 -10
0 -135 -109 -286 -251z"/>
<path d="M3905 10538 c-3 -7 -6 -186 -7 -398 l-3 -385 -97 -3 c-87 -2 -98 -5
-103 -23 -5 -15 9 -36 62 -92 37 -40 153 -164 258 -275 147 -158 195 -202 211
-200 14 2 119 106 274 271 192 205 250 274 248 290 -3 21 -9 22 -100 25 l-98
3 -2 397 -3 397 -318 3 c-249 2 -319 0 -322 -10z"/>
<path d="M7102 10278 c-190 -203 -252 -276 -250 -292 3 -20 10 -21 101 -24
l97 -3 0 -394 c0 -380 1 -395 19 -405 30 -16 592 -14 614 3 15 11 17 50 19
402 l3 390 97 3 c87 2 98 5 103 23 5 15 -8 36 -57 87 -35 37 -150 161 -257
275 -134 143 -201 207 -215 207 -14 -1 -104 -89 -274 -272z"/>
<path d="M1187 10379 c-14 -8 -17 -25 -17 -104 l0 -95 -394 0 c-350 0 -395 -2
-400 -16 -3 -9 -6 -152 -6 -319 0 -267 2 -304 16 -309 9 -3 189 -6 400 -6
l384 0 0 -94 c0 -107 12 -130 52 -103 47 31 548 509 548 522 0 13 -520 508
-552 526 -7 4 -21 3 -31 -2z"/>
<path d="M10327 10333 c-217 -199 -497 -468 -497 -478 0 -7 102 -109 228 -226
353 -331 329 -311 352 -299 18 10 20 21 20 105 l0 95 398 2 397 3 3 314 c2
245 -1 316 -10 323 -7 4 -187 8 -400 8 l-388 0 0 93 c0 87 -8 117 -32 117 -5
0 -36 -26 -71 -57z"/>
<path d="M20 8408 c-20 -21 -20 -31 -20 -710 l0 -689 25 -24 24 -25 458 0
c373 0 465 -3 498 -15 30 -11 95 -14 266 -15 l227 0 7 -37 c4 -22 20 -50 40
-70 27 -27 40 -33 76 -33 24 1 54 6 66 13 11 7 113 99 226 205 230 215 241
232 213 305 -12 31 -47 71 -135 152 l-119 110 -3 406 c-4 383 -5 408 -23 428
l-19 21 -893 0 -893 0 -21 -22z"/>
<path d="M3230 8410 c-20 -20 -20 -33 -20 -713 l0 -694 23 -21 c23 -22 24 -22
530 -22 l507 0 38 -42 c20 -24 113 -123 205 -220 191 -202 212 -215 285 -182
49 23 407 399 429 452 30 71 -20 156 -97 168 l-39 6 -6 247 c-3 135 -7 417
-10 626 -5 331 -8 381 -22 397 -15 17 -64 18 -910 18 -880 0 -893 0 -913 -20z"/>
<path d="M6381 8403 c-21 -26 -21 -29 -19 -715 l3 -690 24 -19 c22 -18 47 -19
602 -19 l579 0 0 -179 0 -180 33 -34 c43 -46 69 -49 337 -45 312 4 300 -9 300
338 0 235 0 240 20 240 66 0 130 63 130 128 0 46 -12 66 -91 150 l-69 72 0
464 c0 454 0 464 -21 490 l-20 26 -894 0 -894 0 -20 -27z"/>
<path d="M9534 8409 c-18 -20 -19 -47 -19 -716 l0 -695 24 -19 c22 -18 45 -19
493 -19 l470 0 130 -122 c71 -68 139 -128 151 -135 30 -17 92 -16 126 2 30 15
61 68 61 104 0 21 3 21 233 21 357 1 347 -10 347 342 0 202 -2 238 -18 268
-19 40 -71 70 -119 70 l-33 0 0 438 c0 427 -1 439 -20 460 l-21 22 -893 0
-893 0 -19 -21z"/>
<path d="M25 6165 l-25 -24 0 -689 c0 -744 -3 -689 43 -734 1 -1 218 -6 482
-10 264 -5 591 -10 726 -13 l247 -6 6 -39 c12 -78 102 -130 170 -98 30 15 400
355 436 401 24 32 31 68 19 110 -7 28 -39 64 -134 154 l-125 117 0 394 c0 413
-3 439 -45 456 -9 3 -412 6 -896 6 l-880 0 -24 -25z"/>
<path d="M3236 6169 l-26 -20 0 -694 c0 -667 1 -694 19 -716 l19 -24 512 -2
511 -3 200 -214 c110 -117 211 -218 225 -225 34 -15 79 -14 112 3 15 8 86 77
158 153 283 300 284 301 264 375 -13 47 -50 79 -99 85 l-40 6 -6 251 c-3 138
-9 423 -13 633 -7 366 -8 383 -27 397 -17 13 -131 15 -901 16 -877 0 -881 0
-908 -21z"/>
<path d="M6389 6171 l-24 -19 -3 -690 -2 -690 24 -29 24 -28 579 -2 578 -3 5
-180 5 -180 33 -32 32 -33 250 -3 c209 -2 255 0 283 13 60 28 62 36 67 310 l5
250 35 6 c48 7 77 28 95 65 32 69 17 109 -84 216 l-61 66 0 466 0 467 -25 24
-24 25 -884 0 c-856 0 -886 -1 -908 -19z"/>
<path d="M9540 6170 c-11 -11 -22 -30 -25 -42 -3 -13 -4 -326 -3 -695 l3 -672
23 -23 23 -23 472 -3 473 -3 133 -124 c146 -136 179 -155 240 -136 50 15 81
50 88 100 l6 41 241 0 c349 0 336 -13 336 342 0 213 -2 236 -20 265 -25 42
-59 63 -106 67 l-39 4 -5 442 -5 442 -24 19 c-22 18 -52 19 -907 19 -867 0
-884 0 -904 -20z"/>
<path d="M10417 3482 c-218 -218 -337 -344 -337 -357 0 -24 677 -705 700 -705
17 0 210 189 210 205 0 5 -109 119 -242 252 l-243 243 238 238 c156 156 237
244 237 258 0 26 -180 204 -206 204 -12 0 -151 -132 -357 -338z"/>
<path d="M742 3667 c-50 -51 -92 -97 -92 -102 0 -5 98 -107 217 -227 l218
-218 -213 -213 c-139 -139 -212 -219 -212 -233 0 -23 168 -194 191 -194 14 0
613 592 631 624 9 16 -33 61 -308 337 -175 176 -323 319 -329 319 -6 0 -52
-42 -103 -93z"/>
<path d="M4463 3338 l-243 -243 -238 238 c-130 130 -244 237 -252 237 -9 0
-60 -44 -114 -99 -75 -75 -97 -103 -92 -117 8 -26 678 -694 696 -694 15 0 684
661 701 693 9 16 -6 35 -92 123 -57 57 -107 104 -113 104 -6 0 -119 -109 -253
-242z"/>
<path d="M7370 3573 c-8 -3 -167 -157 -352 -342 -227 -225 -338 -343 -338
-357 0 -19 187 -214 206 -214 4 0 117 109 251 242 l243 243 238 -238 c130
-130 244 -237 252 -237 20 0 210 191 210 210 0 14 -651 674 -680 689 -8 5 -22
6 -30 4z"/>
<path d="M4438 1533 l-218 -218 -213 213 c-139 139 -219 212 -233 212 -20 0
-194 -167 -194 -186 0 -15 624 -634 640 -634 20 0 640 621 640 641 0 19 -172
189 -191 189 -8 0 -112 -98 -231 -217z"/>
<path d="M7052 1437 c-171 -171 -312 -319 -312 -327 0 -19 170 -190 190 -190
8 0 112 97 230 214 l215 215 219 -215 c120 -117 224 -214 230 -214 7 0 54 42
105 94 77 79 91 98 82 113 -18 32 -616 623 -631 623 -9 0 -156 -141 -328 -313z"/>
<path d="M277 1421 c-48 -49 -87 -92 -87 -97 0 -4 99 -107 220 -229 l220 -220
-215 -215 c-118 -118 -215 -222 -215 -230 0 -20 171 -190 190 -190 16 0 640
619 640 635 0 5 -141 150 -312 322 -211 211 -319 313 -333 313 -14 0 -54 -33
-108 -89z"/>
<path d="M1197 1422 c-48 -48 -87 -94 -87 -102 0 -8 98 -112 217 -232 l218
-218 -213 -213 c-139 -139 -212 -219 -212 -233 0 -26 160 -184 186 -184 12 0
142 123 328 309 268 269 308 312 303 332 -9 34 -607 629 -633 629 -11 0 -56
-36 -107 -88z"/>
<path d="M9967 1202 c-169 -169 -307 -314 -307 -322 0 -20 620 -640 640 -640
19 0 190 170 190 189 0 8 -98 113 -217 233 l-218 218 213 213 c139 139 212
219 212 233 0 26 -160 184 -186 184 -12 0 -142 -122 -327 -308z"/>
<path d="M10882 1197 c-171 -171 -312 -316 -312 -322 0 -5 141 -150 312 -322
211 -211 319 -313 333 -313 20 0 195 167 195 186 0 4 -99 107 -220 229 l-220
220 215 215 c118 118 215 222 215 230 0 19 -170 190 -190 190 -8 0 -156 -141
-328 -313z"/>
<path d="M3677 742 c-51 -51 -87 -96 -87 -107 0 -24 607 -635 630 -635 20 0
640 621 640 640 0 19 -170 190 -190 190 -8 0 -112 -97 -230 -215 l-215 -215
-215 215 c-119 118 -222 215 -230 215 -9 0 -55 -39 -103 -88z"/>
<path d="M7052 517 c-171 -171 -312 -319 -312 -328 0 -19 172 -189 191 -189 8
0 112 98 231 217 l218 218 213 -213 c139 -139 219 -212 233 -212 20 0 194 167
194 186 0 15 -624 634 -640 634 -8 0 -156 -141 -328 -313z"/>
</g>
</svg>
